<?xml version="1.0" encoding="UTF-8"?><!DOCTYPE svg PUBLIC "-//W3C//DTD SVG 1.1//EN" "http://www.w3.org/Graphics/SVG/1.1/DTD/svg11.dtd"><svg xmlns="http://www.w3.org/2000/svg" xmlns:xlink="http://www.w3.org/1999/xlink" version="1.1" width="24" height="24" viewBox="0 0 24 24"><path d="M23 10C23 8.89307 22.1044 8 21 8L14.6844 8L15.6384 3.42908C15.6594 3.32703 15.6714 3.22205 15.6714 3.11304C15.6714 2.69904 15.5 2.32404 15.2314 2.05304L14.1714 1L7.58539 7.58405C7.22339 7.94604 7 8.44604 7 9L7 19C7 20.1021 7.89539 21 9 21L18 21C18.8274 21 19.5374 20.5 19.8414 19.7781L22.8584 12.725C22.9464 12.5 23 12.2551 23 12L23 10.0831L23 10ZM1 21L5 21L5 9L1 9L1 21Z" /></svg>
