<?xml version="1.0" encoding="UTF-8"?><!DOCTYPE svg PUBLIC "-//W3C//DTD SVG 1.1//EN" "http://www.w3.org/Graphics/SVG/1.1/DTD/svg11.dtd"><svg xmlns="http://www.w3.org/2000/svg" xmlns:xlink="http://www.w3.org/1999/xlink" version="1.1" width="24" height="24" viewBox="0 0 24 24"><path d="M19 15L23 15L23 3L19 3M15 3L6 3C5.17139 3 4.4614 3.5 4.15738 4.21802L1.14038 11.2711C1.0524 11.5 1 11.741 1 12L1 13.913L1 14C1 15.103 1.89438 16 3 16L9.31439 16L8.36041 20.567C8.33942 20.6691 8.32739 20.774 8.32739 20.8831C8.32739 21.2971 8.5 21.6721 8.7674 21.9431L9.82739 23L16.4134 16.412C16.7754 16.05 17 15.55 17 15L17 5C17 3.89404 16.1034 3 15 3Z" /></svg>